<svg width="144" height="144" viewBox="0 0 144 144" fill="none" xmlns="http://www.w3.org/2000/svg">
<path d="M21.375 5.39997C18.225 10.125 17.775 18.45 18.45 63C19.125 111.6 19.35 115.425 23.4 118.35C29.25 122.4 50.4 122.625 53.775 118.35C57.15 114.3 52.65 112.5 38.025 112.5H27L27.45 60.075L28.125 7.87496H67.5H106.875L107.55 35.325C108 56.7 108.9 62.775 111.375 63.9C114.3 65.025 114.75 60.525 114.75 35.325C114.75 15.075 113.85 4.49997 112.05 2.69997C110.25 0.899969 96.975 -3.07668e-05 67.05 -3.07668e-05C24.975 -3.07668e-05 24.75 -3.07668e-05 21.375 5.39997Z" fill="#EF5B48"/>
<path d="M37.575 26.1C33.525 30.15 41.175 31.5 67.725 31.5C92.025 31.5 96.75 31.05 96.75 28.125C96.75 25.2 92.025 24.75 67.95 24.75C51.975 24.75 38.25 25.425 37.575 26.1Z" fill="#EF5B48"/>
<path d="M37.575 44.1C33.525 48.15 41.175 49.5 67.725 49.5C92.025 49.5 96.75 49.05 96.75 46.125C96.75 43.2 92.025 42.75 67.95 42.75C51.975 42.75 38.25 43.425 37.575 44.1Z" fill="#EF5B48"/>
<path d="M83.25 64.125C81.675 65.925 77.4 67.5 74.025 67.5C68.85 67.5 66.825 68.85 65.25 73.35C63.9 76.5 60.75 81 58.275 83.025C54.225 86.4 53.775 87.75 56.025 91.8C58.05 95.625 58.05 97.875 56.025 101.7C53.775 105.975 54.225 107.1 59.4 110.925C62.55 113.175 65.25 117 65.25 119.475C65.25 123.525 67.5 124.65 73.8 123.975C75.6 123.75 78.975 125.325 81.225 127.35C85.5 131.175 85.95 131.175 92.25 127.35C95.85 125.325 100.575 123.75 102.825 124.2C105.075 124.65 107.775 122.625 109.35 119.7C110.7 116.775 114.075 112.5 116.55 110.025C120.6 106.425 121.05 104.85 119.025 100.35C117.225 96.525 117.225 93.825 119.025 90.45C121.275 86.4 120.825 85.05 116.1 82.125C112.95 80.1 110.25 76.275 109.8 73.575C109.35 69.975 107.325 68.4 102.6 67.95C99 67.5 93.825 65.7 91.125 63.9C86.85 60.975 85.725 60.975 83.25 64.125ZM103.95 78.525C110.25 84.15 111.375 86.625 111.375 95.625C111.375 104.625 110.25 107.1 103.95 112.725C87.975 127.125 63 116.55 63 95.625C63 82.35 73.35 72.225 87.075 72C94.5 72 98.325 73.35 103.95 78.525Z" fill="#EF5B48"/>
<path d="M79.875 76.275C66.15 82.125 62.55 99.675 72.9 110.025C85.95 122.85 108 113.85 108 95.625C108 81.675 92.475 70.875 79.875 76.275Z" fill="#EF5B48"/>
<path d="M55.35 125.55L49.5 132.075L55.125 134.55C58.275 135.9 60.75 138.6 60.75 140.625C60.75 145.8 63.675 144.675 71.55 136.575C80.1 127.8 80.55 125.55 73.35 127.35C69.525 128.25 67.05 127.35 64.8 123.975C61.425 119.25 61.425 119.475 55.35 125.55Z" fill="#EF5B48"/>
<path d="M110.475 123.975C108.45 127.35 105.975 128.475 102.15 127.575C94.95 126.225 95.4 128.25 104.175 136.8C112.725 145.125 114.75 145.575 114.75 139.725C114.75 137.475 116.775 135 119.25 134.325C125.1 132.75 124.875 130.05 118.575 124.2L113.4 119.475L110.475 123.975Z" fill="#EF5B48"/>
</svg>
